<svg width="17" height="18" viewBox="0 0 17 18" fill="none" xmlns="http://www.w3.org/2000/svg">
    <path fill-rule="evenodd" clip-rule="evenodd" d="M9.22273 0.667114C9.81939 0.667114 10.3994 0.912114 10.8152 1.33795C11.2302 1.76628 11.4594 2.35378 11.4419 2.94961C11.4436 3.08378 11.4877 3.23878 11.5677 3.37461C11.7002 3.59961 11.9094 3.75795 12.1577 3.82295C12.4061 3.88461 12.6661 3.85128 12.8869 3.72045C13.9536 3.11128 15.3111 3.47628 15.9202 4.53461L16.4394 5.43378C16.4527 5.45795 16.4644 5.48128 16.4744 5.50545C17.0261 6.54795 16.6577 7.86045 15.6327 8.45961C15.4836 8.54545 15.3627 8.66545 15.2794 8.81045C15.1502 9.03461 15.1144 9.30128 15.1794 9.54628C15.2461 9.79628 15.4052 10.0038 15.6294 10.1321C16.1352 10.4229 16.5127 10.9129 16.6636 11.4788C16.8144 12.0438 16.7319 12.6571 16.4377 13.1629L15.8844 14.0846C15.2752 15.1313 13.9177 15.4938 12.8619 14.8838C12.7211 14.8029 12.5586 14.7588 12.3969 14.7546H12.3919C12.1511 14.7546 11.9036 14.8571 11.7236 15.0363C11.5411 15.2188 11.4411 15.4621 11.4427 15.7204C11.4369 16.9446 10.4411 17.9346 9.22273 17.9346H8.17856C6.95439 17.9346 5.95856 16.9396 5.95856 15.7154C5.95689 15.5646 5.91356 15.4079 5.83273 15.2721C5.70189 15.0438 5.49023 14.8804 5.24606 14.8154C5.00356 14.7504 4.73773 14.7863 4.51939 14.9129C3.99606 15.2046 3.38023 15.2754 2.81689 15.1171C2.25439 14.9579 1.76856 14.5713 1.48356 14.0588L0.962726 13.1613C0.353559 12.1046 0.716059 10.7504 1.77106 10.1404C2.07023 9.96795 2.25606 9.64628 2.25606 9.30128C2.25606 8.95628 2.07023 8.63378 1.77106 8.46128C0.715226 7.84795 0.353559 6.49045 0.961892 5.43378L1.52689 4.50628C2.12773 3.46128 3.48606 3.09295 4.54523 3.70128C4.68939 3.78711 4.84606 3.83045 5.00523 3.83211C5.52439 3.83211 5.95856 3.40378 5.96689 2.87711C5.96356 2.29628 6.19273 1.73878 6.61023 1.31795C7.02939 0.897948 7.58606 0.667114 8.17856 0.667114H9.22273ZM9.22273 1.91711H8.17856C7.92023 1.91711 7.67856 2.01795 7.49606 2.19961C7.31439 2.38211 7.21523 2.62461 7.21689 2.88295C7.19939 4.10128 6.20356 5.08211 4.99773 5.08211C4.61106 5.07795 4.23856 4.97378 3.91523 4.78045C3.46106 4.52211 2.86773 4.68128 2.60189 5.14378L2.03773 6.07128C1.77939 6.51961 1.93773 7.11211 2.39773 7.37961C3.08023 7.77461 3.50606 8.51128 3.50606 9.30128C3.50606 10.0913 3.08023 10.8271 2.39606 11.2229C1.93856 11.4879 1.78023 12.0771 2.04523 12.5354L2.57106 13.4421C2.70106 13.6763 2.91356 13.8454 3.15939 13.9146C3.40439 13.9829 3.67439 13.9538 3.89939 13.8288C4.23023 13.6346 4.61523 13.5338 5.00189 13.5338C5.19273 13.5338 5.38356 13.5579 5.57023 13.6079C6.13356 13.7596 6.62273 14.1363 6.91273 14.6421C7.10106 14.9596 7.20523 15.3304 7.20856 15.7088C7.20856 16.2504 7.64356 16.6846 8.17856 16.6846H9.22273C9.75523 16.6846 10.1902 16.2529 10.1927 15.7204C10.1894 15.1321 10.4194 14.5729 10.8402 14.1521C11.2552 13.7371 11.8352 13.4879 12.4152 13.5046C12.7952 13.5138 13.1611 13.6163 13.4836 13.7996C13.9477 14.0654 14.5402 13.9071 14.8086 13.4488L15.3619 12.5263C15.4852 12.3138 15.5211 12.0471 15.4552 11.8013C15.3902 11.5554 15.2269 11.3421 15.0069 11.2163C14.4919 10.9196 14.1244 10.4413 13.9719 9.86795C13.8211 9.30545 13.9036 8.69128 14.1977 8.18545C14.3894 7.85211 14.6702 7.57128 15.0069 7.37795C15.4586 7.11378 15.6169 6.52295 15.3544 6.06295C15.3436 6.04461 15.3336 6.02545 15.3252 6.00545L14.8369 5.15878C14.5711 4.69628 13.9794 4.53711 13.5152 4.80128C13.0136 5.09795 12.4169 5.18295 11.8436 5.03211C11.2711 4.88378 10.7911 4.52128 10.4919 4.00961C10.3002 3.68961 10.1961 3.31711 10.1927 2.93795C10.2002 2.65295 10.1002 2.39711 9.91856 2.20961C9.73773 2.02295 9.48356 1.91711 9.22273 1.91711ZM8.70431 6.47886C10.2601 6.47886 11.526 7.74553 11.526 9.30136C11.526 10.8572 10.2601 12.1222 8.70431 12.1222C7.14848 12.1222 5.88264 10.8572 5.88264 9.30136C5.88264 7.74553 7.14848 6.47886 8.70431 6.47886ZM8.70431 7.72886C7.83764 7.72886 7.13264 8.4347 7.13264 9.30136C7.13264 10.168 7.83764 10.8722 8.70431 10.8722C9.57098 10.8722 10.276 10.168 10.276 9.30136C10.276 8.4347 9.57098 7.72886 8.70431 7.72886Z" fill="#352555"/>
</svg>

